<?xml version="1.0" encoding="UTF-8" ?>
<!DOCTYPE svg PUBLIC "-//W3C//DTD SVG 1.1//EN" "http://www.w3.org/Graphics/SVG/1.1/DTD/svg11.dtd">
<svg width="96pt" height="96pt" viewBox="0 0 96 96" version="1.1" xmlns="http://www.w3.org/2000/svg">
<g id="#3ccbf4ff">
<path fill="#3ccbf4" opacity="1.00" d=" M 21.91 11.99 C 21.96 10.16 22.80 7.92 25.01 8.01 C 27.22 7.94 28.05 10.18 28.09 12.01 C 28.07 14.66 28.15 17.33 27.73 19.96 C 27.05 22.55 22.94 22.58 22.28 19.97 C 21.84 17.33 21.93 14.65 21.91 11.99 Z" />
<path fill="#3ccbf4" opacity="1.00" d=" M 67.92 12.00 C 68.13 10.57 68.29 8.59 70.03 8.21 C 72.44 7.21 74.28 9.80 74.08 11.99 C 74.06 14.65 74.15 17.33 73.74 19.97 C 73.02 22.58 68.89 22.57 68.26 19.92 C 67.85 17.31 67.93 14.64 67.92 12.00 Z" />
</g>
<g id="#0175cfff">
<path fill="#0175cf" opacity="1.00" d=" M 12.18 15.03 C 12.82 11.91 16.45 11.84 18.98 11.96 C 19.26 15.72 18.62 19.93 20.77 23.25 C 22.73 24.63 25.18 24.99 27.42 25.69 C 27.68 26.26 28.19 27.40 28.44 27.97 C 22.96 28.01 17.48 28.01 12.00 27.96 C 12.10 23.65 11.74 19.32 12.18 15.03 Z" />
</g>
<g id="#046bbfff">
<path fill="#046bbf" opacity="1.00" d=" M 18.98 11.96 C 19.71 11.97 21.18 11.98 21.91 11.99 C 21.93 14.65 21.84 17.33 22.28 19.97 C 22.94 22.58 27.05 22.55 27.73 19.96 C 28.15 17.33 28.07 14.66 28.09 12.01 C 35.45 11.98 42.82 12.01 50.19 12.00 C 49.52 17.40 48.48 22.75 47.13 28.02 C 43.56 28.00 39.98 28.01 36.41 28.00 C 33.76 27.98 31.10 27.96 28.44 27.97 C 28.19 27.40 27.68 26.26 27.42 25.69 C 25.18 24.99 22.73 24.63 20.77 23.25 C 18.62 19.93 19.26 15.72 18.98 11.96 Z" />
</g>
<g id="#0764b4ff">
<path fill="#0764b4" opacity="1.00" d=" M 50.19 12.00 C 55.09 11.99 59.99 12.00 64.89 12.01 C 65.04 15.55 64.23 19.51 66.33 22.64 C 67.40 24.44 68.55 26.17 69.64 27.95 L 68.49 27.97 C 63.46 28.10 58.43 27.97 53.40 28.02 C 51.31 28.03 49.22 28.04 47.13 28.02 C 48.48 22.75 49.52 17.40 50.19 12.00 Z" />
</g>
<g id="#0a5aa4ff">
<path fill="#0a5aa4" opacity="1.00" d=" M 64.89 12.01 C 65.64 12.00 67.16 12.00 67.92 12.00 C 67.93 14.64 67.85 17.31 68.26 19.92 C 68.89 22.57 73.02 22.58 73.74 19.97 C 74.15 17.33 74.06 14.65 74.08 11.99 C 77.22 12.31 81.84 10.79 83.60 14.34 C 84.49 18.79 83.80 23.40 84.00 27.91 C 83.59 27.94 82.77 28.00 82.36 28.03 C 78.12 28.07 73.88 27.86 69.64 27.95 C 68.55 26.17 67.40 24.44 66.33 22.64 C 64.23 19.51 65.04 15.55 64.89 12.01 Z" />
</g>
<g id="#21a5e6ff">
<path fill="#21a5e6" opacity="1.00" d=" M 12.00 27.96 C 17.48 28.01 22.96 28.01 28.44 27.97 C 31.10 27.96 33.76 27.98 36.41 28.00 C 32.66 34.55 27.60 40.19 23.35 46.39 C 19.46 51.29 16.23 56.70 12.01 61.34 C 12.00 50.22 12.00 39.09 12.00 27.96 Z" />
</g>
<g id="#1a9be2ff">
<path fill="#1a9be2" opacity="1.00" d=" M 36.41 28.00 C 39.98 28.01 43.56 28.00 47.13 28.02 C 49.22 28.04 51.31 28.03 53.40 28.02 C 50.50 32.54 47.17 36.77 43.98 41.09 C 43.97 40.33 43.93 38.81 43.91 38.05 C 41.29 38.01 38.67 38.04 36.05 38.07 C 36.02 40.68 36.03 43.30 36.06 45.91 C 37.40 45.96 38.73 45.98 40.07 45.98 C 38.95 47.99 37.78 49.97 36.55 51.92 C 36.41 52.13 36.15 52.55 36.01 52.76 C 32.35 56.93 29.11 61.44 25.99 66.02 C 24.01 65.99 22.03 66.02 20.05 66.08 C 20.00 68.74 20.05 71.41 20.17 74.07 C 18.02 77.24 15.55 80.18 12.84 82.89 C 11.04 75.89 12.42 68.50 12.01 61.34 C 16.23 56.70 19.46 51.29 23.35 46.39 C 27.60 40.19 32.66 34.55 36.41 28.00 M 20.07 52.08 C 19.98 54.69 19.99 57.30 20.08 59.91 C 22.69 60.00 25.30 60.00 27.91 59.92 C 28.00 57.30 28.00 54.69 27.92 52.08 C 25.30 51.98 22.69 51.98 20.07 52.08 Z" />
</g>
<g id="#1392deff">
<path fill="#1392de" opacity="1.00" d=" M 53.40 28.02 C 58.43 27.97 63.46 28.10 68.49 27.97 C 66.07 31.70 63.59 35.45 60.29 38.48 C 57.58 37.95 54.82 37.90 52.07 38.06 C 52.04 40.68 52.01 43.29 52.05 45.91 C 52.82 45.93 54.38 45.97 55.15 45.99 C 50.73 52.89 45.55 59.25 40.95 66.02 C 39.34 66.02 37.72 66.04 36.10 66.07 C 36.06 68.61 35.96 71.15 35.82 73.68 C 32.62 76.65 30.37 80.41 27.96 84.00 C 22.95 83.59 17.56 85.05 12.84 82.89 C 15.55 80.18 18.02 77.24 20.17 74.07 C 22.76 74.04 25.35 73.94 27.94 73.92 C 27.96 71.34 28.06 68.76 27.92 66.18 C 27.43 66.14 26.47 66.06 25.99 66.02 C 29.11 61.44 32.35 56.93 36.01 52.76 C 35.92 55.15 36.04 57.54 36.07 59.94 C 38.69 59.98 41.31 59.97 43.93 59.94 C 43.97 57.32 43.98 54.71 43.94 52.10 C 41.47 52.03 39.01 51.97 36.55 51.92 C 37.78 49.97 38.95 47.99 40.07 45.98 C 41.36 45.98 42.65 45.96 43.93 45.93 C 43.96 44.31 43.99 42.70 43.98 41.09 C 47.17 36.77 50.50 32.54 53.40 28.02 Z" />
</g>
<g id="#0c89daff">
<path fill="#0c89da" opacity="1.00" d=" M 68.49 27.97 L 69.64 27.95 C 73.88 27.86 78.12 28.07 82.36 28.03 C 79.93 31.17 77.62 34.40 75.67 37.86 C 73.13 37.96 70.58 38.06 68.04 38.10 C 67.97 40.80 67.99 43.51 68.38 46.19 C 66.34 50.78 62.75 54.38 60.12 58.61 C 60.05 56.42 59.99 54.24 59.88 52.06 C 57.27 52.02 54.67 52.02 52.06 52.05 C 52.02 54.67 52.01 57.30 52.06 59.92 C 54.52 59.94 56.98 60.02 59.44 60.00 C 58.40 62.12 57.07 64.08 55.79 66.06 C 54.54 66.06 53.30 66.06 52.05 66.06 C 52.05 68.63 51.91 71.19 52.04 73.75 C 52.41 73.78 53.14 73.84 53.51 73.87 C 53.69 77.26 53.95 80.67 54.75 83.98 C 45.82 83.98 36.89 84.01 27.96 84.00 C 30.37 80.41 32.62 76.65 35.82 73.68 C 38.52 74.00 41.23 74.02 43.94 73.96 C 43.98 71.33 43.98 68.70 43.95 66.08 C 43.20 66.07 41.70 66.04 40.95 66.02 C 45.55 59.25 50.73 52.89 55.15 45.99 C 56.72 45.99 58.29 45.96 59.87 45.93 C 59.94 43.45 60.08 40.96 60.29 38.48 C 63.59 35.45 66.07 31.70 68.49 27.97 Z" />
</g>
<g id="#0680d7ff">
<path fill="#0680d7" opacity="1.00" d=" M 82.36 28.03 C 82.77 28.00 83.59 27.94 84.00 27.91 C 83.99 37.78 84.04 47.66 83.95 57.53 C 81.40 56.56 78.72 56.02 76.01 55.76 C 75.98 54.51 75.93 53.27 75.86 52.02 C 73.25 51.98 70.65 52.01 68.05 52.04 C 68.05 53.86 68.04 55.68 68.02 57.50 C 64.03 59.27 60.84 62.35 58.48 65.97 C 57.80 65.99 56.46 66.04 55.79 66.06 C 57.07 64.08 58.40 62.12 59.44 60.00 C 59.61 59.65 59.95 58.95 60.12 58.61 C 62.75 54.38 66.34 50.78 68.38 46.19 C 70.91 46.06 73.44 45.95 75.97 45.88 C 76.02 43.20 76.01 40.52 75.67 37.86 C 77.62 34.40 79.93 31.17 82.36 28.03 Z" />
</g>
<g id="#ffffffff">
<path fill="#ffffff" opacity="1.00" d=" M 36.05 38.07 C 38.67 38.04 41.29 38.01 43.91 38.05 C 43.93 38.81 43.97 40.33 43.98 41.09 C 43.99 42.70 43.96 44.31 43.93 45.93 C 42.65 45.96 41.36 45.98 40.07 45.98 C 38.73 45.98 37.40 45.96 36.06 45.91 C 36.03 43.30 36.02 40.68 36.05 38.07 Z" />
<path fill="#ffffff" opacity="1.00" d=" M 52.07 38.06 C 54.82 37.90 57.58 37.95 60.29 38.48 C 60.08 40.96 59.94 43.45 59.87 45.93 C 58.29 45.96 56.72 45.99 55.15 45.99 C 54.38 45.97 52.82 45.93 52.05 45.91 C 52.01 43.29 52.04 40.68 52.07 38.06 Z" />
<path fill="#ffffff" opacity="1.00" d=" M 68.04 38.10 C 70.58 38.06 73.13 37.96 75.67 37.86 C 76.01 40.52 76.02 43.20 75.97 45.88 C 73.44 45.95 70.91 46.06 68.38 46.19 C 67.99 43.51 67.97 40.80 68.04 38.10 Z" />
<path fill="#ffffff" opacity="1.00" d=" M 20.07 52.08 C 22.69 51.98 25.30 51.98 27.92 52.08 C 28.00 54.69 28.00 57.30 27.91 59.92 C 25.30 60.00 22.69 60.00 20.08 59.91 C 19.99 57.30 19.98 54.69 20.07 52.08 Z" />
<path fill="#ffffff" opacity="1.00" d=" M 36.01 52.76 C 36.15 52.55 36.41 52.13 36.55 51.92 C 39.01 51.97 41.47 52.03 43.94 52.10 C 43.98 54.71 43.97 57.32 43.93 59.94 C 41.31 59.97 38.69 59.98 36.07 59.94 C 36.04 57.54 35.92 55.15 36.01 52.76 Z" />
<path fill="#ffffff" opacity="1.00" d=" M 52.06 52.05 C 54.67 52.02 57.27 52.02 59.88 52.06 C 59.99 54.24 60.05 56.42 60.12 58.61 C 59.95 58.95 59.61 59.65 59.44 60.00 C 56.98 60.02 54.52 59.94 52.06 59.92 C 52.01 57.30 52.02 54.67 52.06 52.05 Z" />
<path fill="#ffffff" opacity="1.00" d=" M 20.05 66.08 C 22.03 66.02 24.01 65.99 25.99 66.02 C 26.47 66.06 27.43 66.14 27.92 66.18 C 28.06 68.76 27.96 71.34 27.94 73.92 C 25.35 73.94 22.76 74.04 20.17 74.07 C 20.05 71.41 20.00 68.74 20.05 66.08 Z" />
<path fill="#ffffff" opacity="1.00" d=" M 36.10 66.07 C 37.72 66.04 39.34 66.02 40.95 66.02 C 41.70 66.04 43.20 66.07 43.95 66.08 C 43.98 68.70 43.98 71.33 43.94 73.96 C 41.23 74.02 38.52 74.00 35.82 73.68 C 35.96 71.15 36.06 68.61 36.10 66.07 Z" />
<path fill="#ffffff" opacity="1.00" d=" M 74.07 66.05 C 75.35 66.13 76.64 66.12 77.92 66.04 C 77.93 68.69 78.04 71.33 78.00 73.98 C 80.72 73.94 83.43 74.09 86.14 74.23 C 86.06 75.47 85.95 76.70 85.83 77.94 C 83.23 77.95 80.63 78.07 78.03 78.04 C 78.07 80.68 77.94 83.32 77.92 85.96 C 76.64 85.87 75.35 85.87 74.07 85.96 C 74.07 84.59 74.05 83.23 74.01 81.86 C 73.98 80.57 73.98 79.29 74.01 78.00 C 71.36 78.04 68.70 77.93 66.05 77.92 C 66.12 76.64 66.11 75.36 66.05 74.08 C 68.70 74.07 71.35 73.96 74.00 74.00 C 73.96 71.35 74.06 68.70 74.07 66.05 Z" />
</g>
<g id="#f5f5f5ff">
<path fill="#f5f5f5" opacity="1.00" d=" M 68.05 52.04 C 70.65 52.01 73.25 51.98 75.86 52.02 C 75.93 53.27 75.98 54.51 76.01 55.76 C 73.29 56.04 70.60 56.60 68.02 57.50 C 68.04 55.68 68.05 53.86 68.05 52.04 Z" />
</g>
<g id="#1ca55eff">
<path fill="#1ca55e" opacity="1.00" d=" M 68.02 57.50 C 70.60 56.60 73.29 56.04 76.01 55.76 C 78.72 56.02 81.40 56.56 83.95 57.53 C 88.81 59.84 92.72 63.89 94.76 68.88 C 92.07 70.94 89.23 72.81 86.14 74.23 C 83.43 74.09 80.72 73.94 78.00 73.98 C 78.04 71.33 77.93 68.69 77.92 66.04 C 76.64 66.12 75.35 66.13 74.07 66.05 C 74.06 68.70 73.96 71.35 74.00 74.00 C 71.35 73.96 68.70 74.07 66.05 74.08 C 66.11 75.36 66.12 76.64 66.05 77.92 C 68.70 77.93 71.36 78.04 74.01 78.00 C 73.98 79.29 73.98 80.57 74.01 81.86 C 69.68 84.30 65.33 86.73 61.20 89.50 C 59.82 87.80 58.63 85.96 57.60 84.03 C 56.37 80.82 55.87 77.39 56.01 73.96 C 56.35 71.17 57.24 68.48 58.48 65.97 C 60.84 62.35 64.03 59.27 68.02 57.50 Z" />
</g>
<g id="#f8f8f8ff">
<path fill="#f8f8f8" opacity="1.00" d=" M 52.05 66.06 C 53.30 66.06 54.54 66.06 55.79 66.06 C 56.46 66.04 57.80 65.99 58.48 65.97 C 57.24 68.48 56.35 71.17 56.01 73.96 C 55.39 73.94 54.14 73.89 53.51 73.87 C 53.14 73.84 52.41 73.78 52.04 73.75 C 51.91 71.19 52.05 68.63 52.05 66.06 Z" />
</g>
<g id="#10904dff">
<path fill="#10904d" opacity="1.00" d=" M 94.76 68.88 C 95.27 70.69 95.71 72.52 96.00 74.37 L 96.00 77.51 C 95.30 87.12 87.14 95.24 77.56 96.00 L 74.51 96.00 C 69.47 95.48 64.66 93.22 61.20 89.50 C 65.33 86.73 69.68 84.30 74.01 81.86 C 74.05 83.23 74.07 84.59 74.07 85.96 C 75.35 85.87 76.64 85.87 77.92 85.96 C 77.94 83.32 78.07 80.68 78.03 78.04 C 80.63 78.07 83.23 77.95 85.83 77.94 C 85.95 76.70 86.06 75.47 86.14 74.23 C 89.23 72.81 92.07 70.94 94.76 68.88 Z" />
</g>
<g id="#0676bcff">
<path fill="#0676bc" opacity="1.00" d=" M 53.51 73.87 C 54.14 73.89 55.39 73.94 56.01 73.96 C 55.87 77.39 56.37 80.82 57.60 84.03 C 56.89 84.02 55.46 84.00 54.75 83.98 C 53.95 80.67 53.69 77.26 53.51 73.87 Z" />
</g>
</svg>
